<?xml version="1.0" standalone="no"?>
<!DOCTYPE svg PUBLIC "-//W3C//DTD SVG 20010904//EN"
 "http://www.w3.org/TR/2001/REC-SVG-20010904/DTD/svg10.dtd">
<svg version="1.0" xmlns="http://www.w3.org/2000/svg"
 width="256.000000pt" height="256.000000pt" viewBox="0 0 256.000000 256.000000"
 preserveAspectRatio="xMidYMid meet">
<metadata>
Created by potrace 1.14, written by Peter Selinger 2001-2017
</metadata>
<g transform="translate(0.000000,256.000000) scale(0.100000,-0.100000)"
fill="#000000" stroke="none">
<path d="M575 2332 c-24 -67 -31 -235 -12 -289 l14 -42 -39 -52 c-43 -58 -61
-95 -89 -184 -16 -49 -18 -84 -15 -195 4 -150 18 -215 71 -327 57 -122 183
-229 325 -277 62 -20 170 -45 214 -48 20 -1 36 -3 36 -5 0 -1 -16 -27 -35 -57
-19 -30 -38 -72 -41 -93 -3 -21 -9 -41 -12 -44 -15 -14 -87 -31 -143 -35 -118
-6 -194 40 -305 187 -49 65 -130 112 -195 111 -23 -1 -46 -5 -52 -11 -14 -14
10 -59 35 -67 40 -12 117 -105 160 -192 81 -165 171 -224 348 -227 52 -1 107
1 122 6 32 9 29 24 30 -160 0 -95 -1 -106 -21 -122 -11 -9 -21 -19 -21 -21 0
-1 33 -2 72 -1 40 0 218 2 396 3 177 0 322 4 322 7 0 4 -6 14 -14 22 -11 13
-15 70 -18 276 -4 280 -9 306 -65 382 -12 17 -20 34 -16 36 5 3 33 8 63 12 84
11 218 53 285 88 109 58 197 160 247 286 46 116 64 338 37 446 -18 71 -61 163
-98 210 -22 27 -30 45 -26 60 14 46 17 197 6 257 -19 96 -30 108 -93 102 -69
-8 -164 -44 -261 -100 -75 -44 -81 -45 -121 -36 -69 18 -93 22 -163 29 -159
16 -347 4 -470 -28 -39 -11 -45 -9 -100 24 -115 69 -216 108 -294 113 l-48 2
-16 -46z"/>
</g>
</svg>
